<?xml version="1.0" encoding="UTF-8" standalone="no"?>
<!-- Created with Inkscape (http://www.inkscape.org/) -->

<svg
   width="260"
   height="260"
   viewBox="0 0 68.791669 68.791661"
   version="1.1"
   id="svg1"
   xml:space="preserve"
   xmlns="http://www.w3.org/2000/svg"
   xmlns:svg="http://www.w3.org/2000/svg"><defs
     id="defs1" /><g
     id="g3"
     transform="matrix(0.79767297,-0.06160637,0.06160637,0.79767297,80.423106,-129.93035)"><path
       style="fill:#000000;fill-opacity:1;stroke:none;stroke-width:0.519942;stroke-linecap:round;stroke-linejoin:round;paint-order:stroke fill markers"
       d="M 21.650292,26.114796 Z"
       id="path57" /><path
       style="fill:#0072ce;fill-opacity:1;stroke:none;stroke-width:0.519942;stroke-linecap:round;stroke-linejoin:round;paint-order:stroke fill markers"
       d="M 38.887753,31.357126 Z"
       id="path63" /><path
       style="fill:#0072ce;fill-opacity:1;stroke:none;stroke-width:0.519942;stroke-linecap:round;stroke-linejoin:round;paint-order:stroke fill markers"
       d="M 34.247984,29.794348 Z"
       id="path69" /><g
       id="g15"
       transform="matrix(0.65924684,0,0,0.65924684,-16.308419,59.103375)"><g
         id="g10"
         transform="matrix(0.40945395,0,0,0.40945395,-97.887909,227.82616)"><text
           xml:space="preserve"
           style="font-size:79.7883px;text-align:start;writing-mode:lr-tb;direction:ltr;text-anchor:start;fill:#6a3ecf;fill-opacity:1;stroke:none;stroke-width:26.5896;stroke-linecap:round;stroke-linejoin:round;stroke-opacity:1;paint-order:stroke fill markers"
           x="-89.441025"
           y="111.80541"
           id="text11"
           transform="rotate(4.4163352)"><tspan
             id="tspan11"
             style="fill:#6a3ecf;fill-opacity:1;stroke-width:26.5896"
             x="-89.441025"
             y="111.80541">ALT<tspan
   style="fill:#0076c0;fill-opacity:1"
   id="tspan12">IA</tspan></tspan></text></g><g
         id="g12"
         transform="matrix(0.40924406,0,0,0.40924406,-49.070672,130.67715)"><path
           style="fill:#e7342b;fill-opacity:1;stroke:none;stroke-width:1.32251;stroke-linecap:round;stroke-linejoin:round;stroke-opacity:1;paint-order:stroke fill markers"
           d="m 38.031281,12.592845 c 0.615919,-0.07053 1.847759,-0.211584 2.92785,-0.422971 1.080091,-0.211386 2.008434,-0.493102 3.102189,-0.877287 1.093756,-0.384184 2.352926,-0.870837 3.670586,-1.4682167 1.31766,-0.5973794 2.693811,-1.3054851 3.998881,-2.0382878 1.30507,-0.7328027 2.53906,-1.4903027 3.944083,-2.4727637 1.405022,-0.9824609 2.981079,-2.1898837 4.330902,-3.2534372 1.349823,-1.06355348 2.473412,-1.98323776 3.64964,-3.0870884 1.176228,-1.1038507 2.405094,-2.3918672 3.56437,-3.7736124 1.159276,-1.3817452 2.248961,-2.8572184 3.288165,-4.474883 1.039204,-1.6176648 2.027927,-3.3775198 2.893876,-5.1891148 0.86595,-1.811594 1.609127,-3.674926 2.18242,-5.228697 0.573294,-1.55377 0.976704,-2.797978 1.297888,-4.121524 0.321185,-1.323546 0.560143,-2.726431 0.735038,-4.045909 0.174894,-1.319479 0.285725,-2.555553 0.418629,-3.928214 0.132904,-1.37266 0.287881,-2.881908 0.356722,-4.171163 0.06884,-1.289255 0.05154,-2.358517 -0.08697,-3.748299 -0.138517,-1.389782 -0.398255,-3.100084 -0.829803,-4.923533 -0.431547,-1.82345 -1.034904,-3.760046 -2.093757,-6.066029 -1.058853,-2.305983 -2.573201,-4.981352 -3.859234,-6.93226 -1.286032,-1.950907 -2.343747,-3.177353 -3.572715,-4.424708 -1.228967,-1.247354 -2.629185,-2.515617 -3.866751,-3.502416 -1.237566,-0.986799 -2.31248,-1.692134 -3.694937,-2.44427 -1.382458,-0.752135 -3.07246,-1.551072 -4.501673,-2.145477 -1.429213,-0.594406 -2.597638,-0.984281 -3.848924,-1.296043 -1.251286,-0.311762 -2.585435,-0.54541 -4.16106,-0.736247 -1.575626,-0.190836 -3.392728,-0.33886 -5.131143,-0.361721 -1.738416,-0.02286 -3.398144,0.07944 -4.827293,0.230284 -1.429148,0.150842 -2.627717,0.350224 -3.687928,0.548767 -1.060211,0.198544 -1.982064,0.396249 -3.093423,0.709928 -1.11136,0.313679 -2.412225,0.743332 -3.805965,1.330994 -1.393739,0.587662 -2.880352,1.333333 -4.148415,2.084359 -1.268063,0.751027 -2.317577,1.507409 -3.346538,2.29611 -1.028961,0.788701 -2.03737,1.609721 -2.961783,2.487167 -0.924413,0.877445 -1.76483,1.811317 -2.621158,2.90146 -0.856328,1.090142 -1.728566,2.336556 -2.446552,3.475798 -0.717986,1.139242 -1.281719,2.171311 -1.741712,3.053893 -0.4599929,0.882582 -0.8162466,1.615677 -1.1657777,2.460693 -0.3495311,0.845016 -0.69234,1.801954 -0.9575798,2.699578 -0.2652398,0.897624 -0.4529103,1.735933 -0.6395865,3.158222 -0.1866763,1.422288 -0.3723581,3.428556 -0.3104608,5.611444 0.061897,2.182888 0.371374,4.542398 0.9769989,6.748072 0.6056249,2.205673 1.5073986,4.257512 2.9455569,6.327728 1.438159,2.070217 3.412703,4.158811 4.960065,5.511427 1.547361,1.352616 2.667541,1.969252 3.615335,2.430441 0.947795,0.461188 1.723205,0.766927 2.882548,1.075429 1.159343,0.308502 2.70262,0.619766 3.804714,0.823969 1.102094,0.204203 1.763005,0.301344 2.539967,0.338303 0.776962,0.03696 1.669975,0.01374 2.529519,-0.07354 0.859543,-0.08727 1.685619,-0.238596 2.587199,-0.422501 0.901581,-0.183904 1.878666,-0.400392 3.008855,-0.808652 1.130189,-0.408261 2.413481,-1.008294 3.531405,-1.655673 1.117925,-0.647378 2.070482,-1.342102 2.984588,-2.135832 0.914106,-0.79373 1.78976,-1.686466 2.6726,-3.020415 0.882841,-1.333949 1.772866,-3.109111 2.306855,-4.850307 0.533989,-1.741196 0.71194,-3.448426 0.668906,-4.880773 -0.04304,-1.432346 -0.307055,-2.589808 -0.69214,-3.62217 -0.385084,-1.032362 -0.891233,-1.939623 -1.770727,-2.887243 -0.879495,-0.947621 -2.132337,-1.935599 -3.510168,-2.449208 -1.377831,-0.513608 -2.880653,-0.552845 -4.007436,-0.213106 -1.126782,0.33974 -1.877527,1.058456 -2.647493,2.063074 -0.769967,1.004618 -1.559156,2.295136 -2.016172,3.388686 -0.457016,1.09355 -0.581859,1.99013 -0.742473,2.838212 -0.160615,0.848082 -0.357001,1.647666 -1.202549,2.286333 -0.845547,0.638668 -2.340256,1.11642 -3.873513,1.143966 -1.533258,0.02755 -3.105065,-0.395113 -4.514745,-1.50114 -1.409681,-1.106027 -2.657235,-2.895423 -3.156748,-4.80478 -0.499513,-1.909358 -0.250984,-3.938679 0.154075,-5.803664 0.405058,-1.864985 0.966648,-3.565634 2.126931,-5.358338 1.160284,-1.792703 2.919263,-3.677461 4.68574,-5.112188 1.766477,-1.434727 3.540452,-2.419425 5.774347,-3.092016 2.233895,-0.672591 4.927709,-1.033077 7.248364,-1.088176 2.320655,-0.0551 4.268152,0.195189 6.396478,0.839748 2.128326,0.644558 4.437482,1.683388 6.677943,3.217476 2.24046,1.534089 4.412226,3.563437 5.716152,4.968976 1.303925,1.405539 1.740012,2.187269 2.192629,2.943692 0.452617,0.756423 0.921766,1.48754 1.583556,3.12156 0.66179,1.63402 1.516223,4.170943 1.808044,6.649139 0.291822,2.478195 0.02103,4.897663 -0.224508,6.742843 -0.24554,1.84518 -0.465831,3.116073 -0.948155,4.690823 -0.482324,1.57475 -1.226681,3.453357 -2.193096,5.272557 -0.966415,1.819201 -2.154889,3.578996 -3.401776,5.199828 -1.246887,1.620831 -2.552188,3.102701 -4.412688,4.610837 -1.8605,1.5081355 -4.276199,3.042538 -7.284368,4.4889269 -3.008169,1.4463889 -6.608808,2.8047641 -10.049172,3.5800917 -3.440365,0.7753277 -6.720456,0.9676077 -9.660303,0.8826896 C 24.122671,-1.1724388 21.523066,-1.534555 18.928559,-2.211277 16.334052,-2.887999 13.744642,-3.879327 11.388838,-5.1099904 9.0330348,-6.3406537 6.9108377,-7.8106525 4.778782,-9.7001318 2.6467264,-11.589611 0.50481164,-13.898572 -1.4515728,-16.769422 c -1.9563844,-2.87085 -3.7272393,-6.303591 -4.8708033,-9.203859 -1.143564,-2.900268 -1.6598377,-5.268065 -1.9812825,-7.870509 -0.3214449,-2.602445 -0.4480611,-5.439539 -0.4141508,-7.768686 0.03391,-2.329147 0.2283473,-4.150348 0.4947188,-5.858432 0.2663714,-1.708085 0.6046771,-3.303052 0.9984626,-4.770809 0.3937855,-1.467756 0.8430505,-2.808301 1.6494069,-4.743583 0.8063564,-1.935282 1.9698041,-4.465301 3.2932644,-6.729425 1.32346026,-2.264125 2.80693264,-4.262354 4.2368526,-5.965086 1.4299199,-1.702733 2.8062864,-3.109967 4.342463,-4.547116 1.5361766,-1.437148 3.2321629,-2.90421 5.2947731,-4.442835 2.06261,-1.538624 4.491844,-3.148812 6.786137,-4.404482 2.294293,-1.25567 4.453646,-2.156823 6.716631,-2.857899 2.262985,-0.701077 4.629603,-1.202076 7.117798,-1.586125 2.488195,-0.38405 5.097968,-0.651148 8.035495,-0.685495 2.937528,-0.03435 6.20281,0.16406 9.221867,0.566254 3.019057,0.402194 5.791887,1.008175 8.251259,1.693667 2.459373,0.685492 4.605288,1.450495 6.820747,2.459039 2.215458,1.008544 4.50046,2.260629 6.488475,3.528192 1.988016,1.267563 3.679043,2.550603 5.312449,3.982851 1.633407,1.432248 3.209192,3.013705 4.610202,4.570138 1.401011,1.556434 2.627246,3.087845 3.726271,4.674736 1.099024,1.586892 2.070837,3.229263 3.085448,5.163049 1.014611,1.933786 2.07202,4.158987 2.988061,6.622964 0.916041,2.463977 1.690714,5.166732 2.265651,7.819487 0.574937,2.652755 0.950139,5.255511 1.32534,7.858267 -0.02548,2.617907 -0.05096,5.235814 -0.144169,7.437455 -0.09321,2.20164 -0.254146,3.987014 -0.473793,5.637243 -0.219646,1.65023 -0.498002,3.165316 -0.776357,4.680401 -0.44349,1.663673 -0.886979,3.327346 -1.370379,4.861169 -0.4834,1.533822 -1.006709,2.937795 -1.670782,4.522968 -0.664073,1.585173 -1.468909,3.3515478 -2.618418,5.4524003 -1.14951,2.1008525 -2.643692,4.5361826 -4.060494,6.56645261 C 81.812769,1.92324 80.473349,3.548449 78.678264,5.3535881 c -1.795085,1.8051391 -4.045835,3.7902083 -6.090903,5.5990889 -2.045068,1.808881 -3.884455,3.441575 -5.785252,5.123306 -1.900797,1.681731 -3.863004,3.412501 -5.676003,5.200891 -1.812998,1.78839 -3.476789,3.634402 -4.91775,5.451689 -1.44096,1.817287 -2.659092,3.60585 -3.577487,5.660721 -0.918395,2.05487 -1.538242,4.380507 -2.689296,3.87353 -1.151054,-0.506977 -2.842177,-3.850471 -4.558908,-7.249772 -1.716731,-3.399302 -3.462314,-6.860821 -4.795006,-9.596136 -1.332692,-2.735315 -2.252493,-4.744425 -2.712395,-5.74898 -0.459901,-1.004554 -0.459903,-1.004553 0.156017,-1.075081 z"
           id="path6-7"
           transform="translate(-128.06583,145.39407)" /><path
           style="fill:#289240;fill-opacity:1;stroke:none;stroke-width:1.32251;stroke-linecap:round;stroke-linejoin:round;stroke-opacity:1;paint-order:stroke fill markers"
           d="m 10.636345,-31.149067 c -0.352806,-0.483665 0.744318,-1.03271 1.310032,-1.228598 3.76591,-1.304013 8.069432,0.700885 11.911022,1.034553 3.842095,0.333712 7.707446,0.340812 11.546452,0.708346 0.963612,0.09225 1.923802,0.220874 2.889209,0.291924 0.202051,0.01487 0.571921,-0.162569 0.606648,0.03703 0.07842,0.450738 -0.244348,0.881799 -0.36093,1.324205 -0.225752,0.856683 -0.559779,1.69794 -0.635141,2.580657 -0.171573,2.009629 -0.09929,4.032659 -0.153132,6.04888 -0.0253,0.94729 -0.05121,1.894564 -0.07775,2.84182 -0.02654,0.947256 0.166788,2.265785 0.344187,3.38647 0.353391,2.232485 0.759046,4.4700787 1.431412,6.6280402 0.610943,1.9608261 1.520447,3.8168405 2.350391,5.6954791 0.859912,1.94647229 1.632753,3.9465102 2.72265,5.7741664 1.216875,2.0405873 2.695404,3.9226335 4.226998,5.7389487 1.145199,1.3580896 2.398808,2.6258336 3.695761,3.8398356 1.829125,1.712136 3.703747,3.3944 5.747613,4.843442 1.280671,0.907959 2.667343,1.661375 4.055836,2.393901 1.068822,0.563877 2.166598,1.075409 3.283556,1.536649 1.610082,0.664873 3.241887,1.292083 4.917022,1.769937 2.341296,0.667885 4.731208,1.192997 7.14325,1.524348 2.204546,0.302847 4.437698,0.379194 6.662593,0.418928 2.343502,0.04185 4.705644,0.118712 7.02905,-0.190384 2.062632,-0.274404 4.104021,-0.778822 6.067273,-1.468308 1.562508,-0.548746 3.030233,-1.342536 4.499123,-2.107336 1.8799,-0.9788 3.76324,-1.97232 5.51142,-3.170627 1.94738,-1.334852 3.73634,-2.892363 5.50854,-4.45231 1.01383,-0.892407 2.09216,-1.740379 2.92632,-2.802657 2.15338,-2.7422737 3.77037,-5.891446 5.23719,-9.0546005 0.43251,-0.9326883 0.72926,-1.92362007 1.04025,-2.90354551 0.38441,-1.21128089 0.73449,-2.43518419 1.01906,-3.67372879 0.14904,-0.6486706 0.26139,-1.305666 0.35963,-1.9640633 0.23507,-1.5753252 0.2717,-3.1703517 0.31488,-4.7625319 0.0723,-2.666321 -0.0503,-5.344573 -0.56814,-7.961117 -0.56928,-2.876386 -1.53134,-5.669207 -2.77436,-8.324875 -1.51242,-3.231234 -3.45015,-6.27501 -5.85047,-8.914469 -2.33644,-2.569215 -5.10184,-4.742663 -8.12906,-6.444352 -4.68231,-2.632063 -10.046477,-4.131748 -15.415187,-3.962098 -4.915573,0.155331 -9.757357,1.710084 -13.938324,4.299776 -2.51253,1.556262 -4.817543,3.505956 -6.509791,5.928982 -2.083913,2.983827 -3.157655,6.556458 -3.865543,10.126446 -0.399071,2.012578 -0.693156,4.059619 -0.617881,6.11 0.115774,3.153496 1.121274,6.260654 2.816453,8.92229 1.606024,2.5216516 3.762607,4.8312186 6.418006,6.1412324 2.821553,1.3919841 6.199135,1.770124 9.328083,1.440789 1.490525,-0.1568841 2.947421,-0.7785265 4.203309,-1.5964652 1.250939,-0.8147154 2.387515,-1.8842016 3.147209,-3.1863068 0.994586,-1.704707 1.360194,-3.7671734 1.012174,-5.7098804 -0.340849,-1.902677 0.107592,-1.429862 -0.173434,-2.058507 -0.174675,-0.390741 -0.529846,-0.68966 -0.881529,-0.933605 -0.137652,-0.09548 -0.0892,-0.03759 -0.463139,-0.195175 -0.374065,-0.157638 -0.74137,-0.343959 -1.136891,-0.435271 -0.641256,-0.148044 -1.276158,-0.32697 -1.923768,-0.444133 -1.283918,-0.232282 -2.604017,-0.242394 -3.880709,-0.511577 -0.398256,-0.08397 -0.811621,-0.153471 -1.171942,-0.342753 -0.508841,-0.267302 -0.972312,-0.644378 -1.33769,-1.088077 -0.281347,-0.341656 -0.416472,-0.781083 -0.624709,-1.171625 -0.110641,-0.207504 -0.193526,-0.428871 -0.271283,-0.650801 -0.577163,-1.647305 -0.287309,-3.482774 0.471784,-5.054559 l 0.465257,-0.963366 c 0.581114,-1.203261 1.885192,-1.905274 3.01714,-2.61536 1.427303,-0.895365 3.03172,-1.510376 4.694707,-1.781203 2.542309,-0.414029 5.166765,-0.01986 7.611218,0.792174 2.119756,0.704172 4.15298,1.733478 5.83712,3.200755 1.76702,1.539484 3.10565,3.521195 4.14839,5.620015 1.40377,2.825499 2.30503,5.921555 2.44016,9.07366 0.0884,2.061656 -0.15011,4.1308275 -0.61878,6.1404486 -0.36755,1.5760375 -0.85332,3.1352298 -1.55522,4.5903348 -0.91647,1.89993204 -2.04874,3.7230747 -3.42675,5.3201749 -1.66127,1.9253927 -3.60675,3.6409345 -5.739417,5.0260941 -2.592312,1.6836968 -5.449007,3.0299966 -8.418235,3.8894146 -2.415283,0.699084 -4.964526,0.982413 -7.478946,0.982935 -3.227565,6.7e-4 -6.491366,-0.392016 -9.60066,-1.257733 C 70.805553,10.879372 68.707593,9.8846733 66.729427,8.7428444 64.497722,7.4546687 62.390051,5.9162455 60.502034,4.1625937 59.295687,3.0420991 58.267967,1.734775 57.290219,0.41008932 56.215311,-1.0462324 55.205934,-2.5647994 54.388493,-4.1797578 c -1.462924,-2.8901904 -2.773419,-5.8930252 -3.544764,-9.0484672 -0.644737,-2.63751 -1.15815,-5.358403 -0.97535,-8.067412 0.121532,-1.801049 0.167253,-3.608822 0.364597,-5.403148 0.118246,-1.07514 0.08521,-2.086876 0.490384,-3.207601 0.405193,-1.120776 0.791903,-2.248233 1.15992,-3.38176 0.328264,-1.011083 0.641838,-2.027521 1.013683,-3.023401 0.614893,-1.646815 1.387689,-3.232716 2.269975,-4.753132 0.536973,-0.925349 1.151572,-1.802196 1.730952,-2.701601 0.816637,-1.267714 1.696668,-2.498655 2.732341,-3.594728 1.365531,-1.445168 2.927382,-2.689506 4.508338,-3.895227 1.808815,-1.379497 3.630604,-2.745259 5.523362,-4.00712 1.844946,-1.229986 3.824033,-2.252592 5.854191,-3.144304 2.654676,-1.16602 5.428271,-2.056219 8.257103,-2.692315 2.252632,-0.50653 4.543808,-0.852757 6.849488,-0.974269 2.804421,-0.147797 5.626282,0.03813 8.387067,0.552611 2.75433,0.513279 4.07926,0.515756 6.04272,1.094642 2.84877,0.839899 5.61808,1.949117 8.25896,3.308043 3.07858,1.584155 5.98798,3.512379 8.57024,5.818699 0.13263,0.118458 0.26439,0.237901 0.39526,0.358308 0.13087,0.120407 3.57696,3.41316 5.19549,5.276918 1.76522,2.032677 3.38938,4.191521 4.90426,6.417043 1.38148,2.029546 2.57581,4.186419 3.56292,6.434343 1.27493,2.903376 2.00844,5.999789 2.7595,9.080527 0.74085,3.038865 1.39848,6.116515 1.3749,9.244292 -0.006,0.797377 -0.0849,1.592003 -0.11263,2.388921 -0.0484,1.391932 -0.055,2.7852946 -0.14262,4.1753143 -0.10696,1.6971198 -0.27355,3.3904919 -0.50004,5.0758286 -0.25602,1.90508596 -0.51561,3.8172258 -0.99653,5.6783061 -0.44549,1.7239995 -1.11254,3.3839773 -1.78218,5.0338938 -0.66979,1.6502867 -1.41537,3.2721532 -2.29426,4.8212212 -0.96152,1.694703 -2.08151,3.299451 -3.34059,4.786481 -1.25726,1.484876 -1.803,2.721705 -2.83369,3.984042 -1.24471,1.524459 -2.66781,2.894465 -4.02969,4.31523 -1.51208,1.577461 -2.90897,3.285965 -4.59759,4.672805 -1.86644,1.53288 -3.98703,2.7317 -6.05413,3.980863 -1.62545,0.982272 -3.28533,1.911675 -4.98502,2.759032 -2.76858,1.380236 -5.4908,2.968598 -8.476146,3.779641 -3.489863,0.948107 -7.170648,1.016332 -10.782197,1.202772 -3.0167,0.155732 -6.04588,0.09709 -9.061865,-0.07193 C 77.741439,41.962276 75.403867,41.703206 73.081646,41.362442 70.518025,40.986255 67.940381,40.610251 65.444479,39.914449 62.603888,39.122555 59.845152,38.032872 57.15362,36.828001 54.377229,35.585142 51.637518,34.220388 49.082194,32.570126 46.128853,30.66282 43.347506,28.47104 40.759348,26.091654 38.1865,23.726343 35.817216,21.127557 33.647702,18.387584 31.725027,15.959354 30.052905,13.336006 28.447209,10.687474 26.983963,8.2739082 25.584726,5.8102261 24.417401,3.2404523 c -1.035495,-2.27955909 -1.734277,-4.697612 -2.62321,-7.0382179 -1.04236,-2.7445876 -2.20209,-5.4453285 -3.178073,-8.2142154 -0.778055,-2.207362 -1.611846,-4.407915 -2.132626,-6.689714 -0.381478,-1.671448 -0.967676,-3.296068 -1.741328,-4.826011 -0.991035,-1.959831 -2.286413,-3.762014 -3.163257,-5.775526 -0.154912,-0.355727 -0.296565,-0.717657 -0.471518,-1.063968 -0.137325,-0.271828 -0.294917,-0.533415 -0.471035,-0.781872 -2e-6,-3e-6 -7e-6,8e-6 -9e-6,5e-6 z"
           id="path7"
           transform="translate(-116.20671,213.35251)" /><path
           style="fill:#1b80c2;fill-opacity:1;stroke:none;stroke-width:1.32251;stroke-linecap:round;stroke-linejoin:round;stroke-opacity:1;paint-order:stroke fill markers"
           d="m 10.355761,-31.162803 c 0.375508,-0.178028 0.718506,-0.424357 1.007168,-0.723312 0.327671,-0.339354 0.581982,-0.741187 0.838831,-1.136862 0.873403,-1.345475 1.802877,-2.653858 2.75787,-3.942704 1.30007,-1.754556 2.648099,-3.473886 3.91071,-5.255588 1.381366,-1.94928 2.661003,-3.973855 4.155925,-5.837473 1.359699,-1.695045 2.91432,-3.283977 3.811166,-5.263276 0.199236,-0.439704 0.366682,-0.914507 0.320347,-1.395014 -0.02317,-0.240254 -0.10173,-0.477642 -0.244024,-0.672606 -0.142294,-0.194964 -0.35063,-0.345047 -0.585989,-0.398568 -0.09403,-0.02138 -0.191221,-0.02746 -0.287512,-0.02221 -0.389357,0.02124 -0.742457,0.222036 -1.111487,0.348 -0.741395,0.253067 -1.553405,0.202611 -2.322871,0.05553 -0.769465,-0.147082 -1.519964,-0.387119 -2.2939,-0.508501 -0.862909,-0.135336 -1.741842,-0.121201 -2.611582,-0.2017 -1.333187,-0.123393 -2.624114,-0.522722 -3.875689,-0.998298 l -3.582528,-1.361297 c -2.0260007,-0.769844 -4.0003256,-1.667543 -5.9431194,-2.628215 l -7.3361821,-3.627594 c -1.0259178,-0.507296 -2.0254146,-1.065425 -3.0289443,-1.615684 -1.0035296,-0.550258 -2.0511921,-1.016169 -3.1241677,-1.41439 l -6.5606095,-2.434883 c -0.84414,-0.313291 -1.701808,-0.598012 -2.586378,-0.766115 -0.88457,-0.168104 -1.78484,-0.233339 -2.67896,-0.33951 -1.210472,-0.143736 -2.415638,-0.330932 -3.628884,-0.448984 l -6.004573,-0.58426 c -1.060676,-0.103206 -2.117876,-0.244978 -3.181057,-0.31799 -1.465197,-0.100619 -2.938117,-0.02112 -4.397632,0.142407 -1.313393,0.14716 -2.618078,0.362143 -3.924088,0.56462 -1.680049,0.260466 -3.364288,0.50055 -5.030024,0.84074 -1.714908,0.350233 -3.410146,0.806957 -5.050472,1.417615 -1.796814,0.668916 -3.521107,1.519903 -5.20192,2.442322 -1.644346,0.902407 -3.249582,1.874107 -4.848179,2.85528 -1.070965,0.657327 -2.140777,1.320115 -3.148614,2.070655 -1.422785,1.059554 -2.711464,2.285961 -4.006089,3.498775 -1.430394,1.340003 -2.875337,2.670035 -4.175847,4.136427 -1.323262,1.492046 -2.488822,3.116139 -3.621273,4.757717 -1.156264,1.676097 -2.282787,3.377212 -3.243567,5.172525 -0.742023,1.386544 -1.382621,2.824466 -2.039755,4.253198 -0.669187,1.454938 -1.357147,2.903995 -1.9071,4.408059 -0.557838,1.525629 -0.941319,3.10862 -1.278699,4.697614 l -0.795518,3.746735 c -0.220156,1.036892 -0.414113,2.081146 -0.504896,3.137257 -0.09078,1.056112 -0.09139,2.117544 -0.127381,3.176939 -0.04246,1.249917 -0.143646,2.49814 -0.144913,3.748778 -9.34e-4,0.921468 0.05243,1.842682 0.148438,2.759135 0.141771,1.353298 0.376259,2.695024 0.555368,4.043888 0.147122,1.1079694 0.257225,2.2228945 0.491083,3.3158499 0.232964,1.0887739 0.585009,2.147913 0.933454,3.2054038 l 1.972095,5.9850824 c 0.36508,1.1079771 0.766904,2.2081958 1.316371,3.2372645 0.549468,1.0290687 1.224466,1.9847226 1.894216,2.9398833 1.596104,2.2762751 3.131891,4.5992381 4.876548,6.7637581 1.385859,1.719375 2.901484,3.335405 4.545397,4.809991 1.822926,1.63516 3.799743,3.09322 5.852259,4.428877 1.33682,0.869924 2.707782,1.689382 4.127752,2.415703 1.484742,0.759452 3.020066,1.415595 4.566522,2.039853 1.439721,0.581172 2.892389,1.135988 4.383125,1.569884 1.400375,0.407596 2.830692,0.707336 4.270748,0.938466 1.634902,0.262403 3.282627,0.436638 4.930982,0.593747 1.171143,0.111625 2.343164,0.214675 3.516645,0.298202 1.104685,0.07863 2.212662,0.139976 3.319295,0.09667 1.049323,-0.04106 2.092338,-0.176 3.136252,-0.290061 1.270185,-0.138784 2.54802,-0.247509 3.793681,-0.53204 0.876308,-0.200165 1.730288,-0.485936 2.586904,-0.758315 1.3884,-0.441471 2.78757,-0.848829 4.172454,-1.30121 0.786594,-0.256946 1.569359,-0.528728 2.328474,-0.858116 1.063396,-0.461418 2.075652,-1.033897 3.055266,-1.653635 0.813778,-0.514825 1.606198,-1.062774 2.387729,-1.625348 1.712757,-1.232904 3.374217,-2.536737 4.9852782,-3.899847 1.0134508,-0.857475 2.0084435,-1.739809 2.9233019,-2.701776 1.1119832,-1.169242 2.1008646,-2.451419 3.0070801,-3.786487 C -2.27715,13.08871 -1.4378004,11.671392 -0.715739,10.195485 0.08717767,8.5543087 0.74279788,6.84593 1.4044049,5.1428707 1.790896,4.1479943 2.181329,3.149113 2.410702,2.1067395 2.6696948,0.92976042 2.7188601,-0.28187485 2.8737838,-1.4770132 c 0.1459225,-1.1256995 0.3859957,-2.2386003 0.4996467,-3.3680144 0.064693,-0.6428937 0.088214,-1.2893071 0.096249,-1.9353976 0.01283,-1.0316743 -0.013749,-2.0638535 -0.080456,-3.0934489 -0.1456915,-2.2486729 -0.483105,-4.4846269 -1.0012717,-6.6776299 -0.470141,-1.989747 -1.0915053,-3.950568 -1.97434595,-5.794671 -0.63279886,-1.321809 -1.39628526,-2.576551 -2.18050365,-3.814539 -0.7172942,-1.13234 -1.4540786,-2.254206 -2.2722408,-3.315957 -1.6193123,-2.101424 -3.5464247,-3.95199 -5.6071374,-5.622804 -2.46509,-1.99868 -5.138316,-3.75428 -8.016917,-5.090336 -3.612857,-1.676849 -7.535002,-2.680001 -11.507849,-2.964681 -3.822528,-0.273909 -7.703864,0.118976 -11.356521,1.278649 -2.184634,0.693594 -4.291406,1.663847 -6.16538,2.983665 -1.808702,1.273848 -3.382665,2.859942 -4.771797,4.581686 -1.797665,2.228095 -3.306626,4.712292 -4.245564,7.416807 -1.156064,3.329922 -1.422175,6.937351 -0.992293,10.435932 0.307114,2.499439 0.967427,4.963573 2.049202,7.2376165 1.368185,2.8761163 3.419062,5.436276 5.98108,7.3283745 2.842473,2.09921977 6.284419,3.3502519 9.802173,3.6845984 2.484209,0.2361127 5.087495,7.607e-4 7.278057,-1.19442863 1.722792,-0.93996967 3.117546,-2.45080937 3.971872,-4.21763747 0.734057,-1.5181014 1.075782,-3.2501956 0.805396,-4.9146365 -0.291159,-1.7923138 -1.329522,-3.4795858 -2.878373,-4.4273318 -0.890172,-0.544698 -1.923235,-0.838985 -2.964585,-0.907484 -1.041349,-0.0685 -2.090997,0.08424 -3.089819,0.38666 -0.358373,0.108506 -0.711251,0.236241 -1.074864,0.325631 -0.363612,0.08939 -0.74184,0.139986 -1.113048,0.0909 -0.296609,-0.03922 -0.581196,-0.140925 -0.858755,-0.252623 -0.2213,-0.08906 -0.441041,-0.185528 -0.640977,-0.315645 -0.535587,-0.348555 -0.890848,-0.911234 -1.190104,-1.475849 -0.545862,-1.029894 -0.966709,-2.142862 -1.075578,-3.303377 -0.09317,-0.993175 0.04511,-2.000346 0.334674,-2.95493 0.39459,-1.300816 1.070367,-2.512971 1.950761,-3.548697 1.046776,-1.231464 2.388198,-2.216147 3.890036,-2.813413 2.02358,-0.804757 4.275831,-0.890801 6.433285,-0.594321 2.665261,0.366264 5.256395,1.307981 7.502734,2.788428 2.250105,1.482929 4.132519,3.487168 5.625418,5.73067 1.480832,2.225367 2.593075,4.701467 3.215325,7.301068 0.851976,3.5593375 0.773143,7.3180775 -0.06847,10.8798795 -0.625743,2.6482141 -1.676734,5.2115538 -3.236142,7.4415402 -1.96033,2.8033134 -4.671219,5.0115603 -7.578952,6.8133773 -2.012717,1.247208 -4.150324,2.323 -6.429943,2.963232 -3.258754,0.915222 -6.710035,0.914163 -10.078231,0.578954 -4.775684,-0.475284 -9.538426,-1.631694 -13.748248,-3.936137 -3.180592,-1.741046 -6.001568,-4.1179239 -8.329775,-6.8976458 -2.324207,-2.7749455 -4.154565,-5.93617398 -5.675225,-9.2209654 -1.498124,-3.2361116 -2.711547,-6.6288858 -3.261253,-10.1523238 -0.43817,-2.808532 -0.449936,-5.674373 -0.168338,-8.502897 0.248452,-2.495586 0.725226,-4.971112 1.47368,-7.364749 0.668466,-2.137826 1.551093,-4.203756 2.529566,-6.218635 0.839076,-1.727832 1.751131,-3.423408 2.810051,-5.02595 2.557805,-3.870916 5.956926,-7.159379 9.802238,-9.755517 2.543161,-1.716998 5.295789,-3.14343 8.219183,-4.075909 2.737691,-0.873245 5.602076,-1.306743 8.470739,-1.47491 2.867953,-0.168126 5.747509,-0.07396 8.608618,0.18581 2.118447,0.192339 4.228942,0.475436 6.320908,0.860779 2.421232,0.445994 4.825531,1.031554 7.116314,1.933545 2.48092,0.976857 4.802244,2.313864 7.0872866,3.687835 2.2215228,1.335778 4.424702,2.715495 6.4521236,4.330743 2.61004653,2.079426 4.9013685,4.527131 7.1228927,7.017349 1.0624451,1.190948 2.1133246,2.396343 3.0414077,3.69473 0.4419384,0.618271 0.8556268,1.257078 1.3202424,1.858494 0.1378746,0.17847 0.2802178,0.353626 0.4109321,0.537405 0.1641491,0.230787 0.3095675,0.474629 0.478044,0.702276 0.1260729,0.170351 0.2648519,0.331296 0.4148029,0.481057 z"
           id="path8"
           transform="matrix(1.009227,-3.8047656e-4,-3.804729e-4,1.0141239,-116.36725,213.92121)" /><path
           style="fill:#ffffff;fill-opacity:1;stroke:none;stroke-width:1.32251;stroke-linecap:round;stroke-linejoin:round;stroke-opacity:1;paint-order:stroke fill markers"
           d="m -89.999986,155.88767 -15.975354,25.86106 28.89992,1.50331 z"
           id="path11" /></g></g></g></svg>
